<mxfile host="Electron" agent="Mozilla/5.0 (X11; Linux x86_64) AppleWebKit/537.36 (KHTML, like Gecko) draw.io/26.2.2 Chrome/134.0.6998.178 Electron/35.1.2 Safari/537.36" version="26.2.2">
  <diagram name="Page-1" id="lWzdYXIawTqoVdijP2aB">
    <mxGraphModel dx="1108" dy="842" grid="1" gridSize="10" guides="1" tooltips="1" connect="1" arrows="1" fold="1" page="1" pageScale="1" pageWidth="1169" pageHeight="827" math="0" shadow="0">
      <root>
        <mxCell id="0" />
        <mxCell id="1" parent="0" />
        <mxCell id="kXoVTFCeTZMKWEtxePff-1" value="" style="shape=image;aspect=fixed;image=data:image/png,iVBORw0KGgoAAAANSUhEUgAAAoEAAADeCAIAAADNdk3kAAAACXBIWXMAAA7EAAAOxAGVKw4bAAAgAElEQVR4Xu3dfXgTVb448O9ooIUGKUhquLy0BUUQOmVhEaFVXgyyLS6ygrgpvqCCC6JhkVVXur/WVAFdF7mQQr3q4gO7KStQXJ7HFFnrumjC3qqIJrzprTfh+rIlESl3E4s72Tu/P872cHomSZN08tZ+P3/0mZxzOjOZmcx3zpkzZwRZlgEhhBBCSXcZn5BcPp+vtraWT0UIIYR6ASGF9WCfzyeKYmtrawrXASGEEEqVlNWDSQCeMGECn4EQQgj1DqmJwSQAr1y58uWXX+bzEEIIod6hUww+c+bM5MmTBUEQBOFXv/oVSfR4PAMGDAgGg+RjcXExLd+vXz9SePLkye+//z5Nj4wG4KqqKj4PIYQQ6jUuxeBAIDB27NiioiKv1+t2u6dPn07Shw8f7vf79+zZQz46nU76LxcvXpRl2ev1FhUVTZ061efz0axwMAAj1Bu4XK4HH3ywvr6eXr4jhJQu9cl6/PHHX3vttTNnznQuAAAgCIJer29pacnJyRGES//CTouiWFJSUldXd+nfFJQB2OPxFBYWYp8shHqMYDA4c+ZMh8MBABqNJhgMOp3OoqIivhxCiK0Hv/POOxs3bmSyOsnLy9u0aROfynj22WffeustPpWhDMAIoZ6nubm5ubmZTJNKML2xhRDidKrUtrW1DRw4kHx0OBwlJSU0y+12FxYWkr8h68EXL17s169fuBptuABM6sFGo5FNBIBgMLh3714uMbVmzZr15z//mU9FCTZ79ux33nmHT0UIpR+73U6jBoqShk6NGjXK4XCUl5c7HI7S0lIA8Pv9OTk5JLegoMBoNK5bt46W5xw9elSr1fKpHfr3788nMW699VY+CWDp0qXl5eV8auoIgsAnocR75513wl3YofT0q1/9av369VyiJEkazaWzTW/DVml6KkEQevx3TIRLFdlVq1Z5PB6bzfavDMV930AgQKJsyHrw0qVLg8Hg73//e/JRKWRVOIPuB7NfFiUNbvaMQ37UbEplZeUzzzzDpqCeB3+q8bl0P/jRRx9tbGzct28fAFy4cAEAAoEAzQWAnJwci8UCHfd4WPv27du5c6fZbObSWTqdzul01tXV1dTU8HkIoZ6ioKBg165do0ePJh8rKyufeuqpTiUQQh06XbnYbDbaLEw7QgNzgRMMBvv06UN7ObLNs2azOZrOVlxtGOvBKDLc7JlLEAT2fhbq2fCnGp9Od2jmzZsnSdL333//3Xff6XQ6mu73+8mERqNpa2ujPyryAwsEAllZWVHe7CG1YVEUASCamI0QylwYgHunkEEhEAjg8aDEB06NRqPRaLgtxX6kHadpeqyblQ3D99xzD5+NEEIoM128ePG6665zu90AMGbMGLvdTqtzWq0WK8pKfAxODhqG33vvPT4PIYRQZpozZw4AtLW1/eMf/ygvLxdF0el0sq2qiJPKFvzMench3u1ICdzsmQv3Xa9CdrcgCF6vlwTdYDBYVlZ2/PhxEobxeAgpNe9NIkht2Gq18hkIIYQyE32gRqPRHDx4cMKECaIoRvM2gd4JL0yihRdxKYGbPXPhvutVyO5+7LHH9u7de+LECdpPiNaGM6XJM8lScz8YIYRQz7Nx40b6aDhBasNlZWV9+/Zl0xGBF6rRwov6lMDNnrlw3/UquLvjk8r7wQghhFBvhjEYIYQQSg2MwQghhFTgcrn4JNQVjMEIIYTi5/P5yAPBoihOmzaNe9kPigxjMEIIofht2bLlm2++IdMffvjh/v37O+ejSDAGI4QQit/27dvpdDAYJC/ARVHCGIwQQhnP4/E0NjYGg8H6+npuUKoXX3wxoe3DJpOJTl922WV33nknk4m6gE90RQuffksJ3OyZC/dd0rz77rszZswg06NGjdJqtZ988gn5ePLkyfHjx9MxnBMhGAzOnDnT4XAAwPz58xsaGqJ8lS0CjMHRwxNKSuBmz1y475ImNzf32WefXbFiBZf+/vvv33LLLRcuXEjCjjhz5kxBQYHT6SwqKuLzUHjYFo0QQplNEATyyl7OAw888OCDD/KpiZGfn282mzdu3MhnoIjwQjVaeFGfErjZMxfuu6T56KOPJk+efMMNNzz44IO33377wIED2dyk7QiPx1NYWJjQdu+eB+vBCCGU2SZNmtTS0jJt2rTNmzfn5uYeOHCAL5EUBQUFRqOxrq6Oz0DhJen6qAdI2rUkYuFmz1y471Li17/+tdlsZjtCJ3NHOByO0tJSv99P312IIsN6MEII9RwLFy787rvv+NRkKSkpEUXx1Vdf5TNQGBiDEUIos9XW1q5evdrn83k8nunTp99///18iSTavn37+vXrg8Egn4FCwRiMEEKZ7c4773S5XHl5eYWFhffee+9//Md/kPTi4mJBEABAEARBEGpqajr9W2JMnToVAPbs2cNnoFCSd58g0yXzngqicLNnLtx3vVZ9ff1zzz1HxwlBEWTqj8Tn8/l8vn/+85/c8+CBQOA///M/b775Zi7xzJkz/fv3LygoYNNjgieUlMDNnrlw3/VawWCwT58+dru9pKSEz0OdZeSPZOnSpTt37iTT/fv3pz0Ag8HgiBEjWltb2S91+vTpcePGkekFCxa8/vrrNCsmeEJJCdzsmQv3XW9WU1Pz3nvvvfXWW3wG6izz7gdv3br1j3/8o8fjkWW5vb39xRdfJOmBQGDSpElZWVmdi0NFRcWPf/xjWZZdLtcf//jHM2fOcAUQQgipa+3atU1NTR6Ph89AnWVeDP7d73735JNP5ufnA0B2dvbdd99N0hcsWCDL8gcffMAWDgaDx44d27x5MwBMmDDhpptu+vOf/8wWQAghpLqcnByj0bhu3To+I5Fmz55Nep8JgvDDH/7Q6/WSdK/Xe/3115P0n/70p6TPtsPhoIWJ1AzvJWcaAHC73Xwqg/1Sfr+f/Wiz2eL+ynH/I+oO3OyZC/ddrOx2O58ky7Ise71eq9Xa0tLCFZAkqa6ujk2RZdlut3u9XrfbrZzb3r17/X4/myJJks1ma2trs9lsXFb3kSGsVZ9tBPSQ8/v948aN0+l05GNZWdn8+fP9fr/b7e7bt6/RaLz0Px0sFosoinxq4mXej6TLncr98iOE5JjE/Y+oO3CzZy7cdzGx2+3AoBH0jTfeAACtVkvSJUmi/7J06VLovJGXLl3at29fOpPKykqaRZqFucA8fvz47OxsAMjKyurbt2/kU2scDAaD2WzmUxOG3RqSJHGbi2hpaeE2mizLkiTp9XrlVUsS8KuS/gYPHhx5S7Hbl7RF0APLZDKVl5fT3JgodxtKAtzsmUvFfef3+48dO2a329kgIUmS2+0mlZtLRTOZcou1tbUBwN69e7l0SZKeeuopAOD+xev10k3U1NREc0+cOEFe5HCpaEc0amtrk2VZkqS+ffvW19ezBbqPXFioHtrDYb8g2XTKRTc0NOTl5XGJdrtdr9crA3YS8Ls8/d19991Tp07lUxnccZabm9vQ0CDLsiRJQ4YMaWpqYnOjp/x5oCTAzZ651Np3hw4dAoDs7GxSY3M6nbIs+/3+rKysyy+/nMQh0h0k0ym3mM1mGzRoEJcoy7LT6Rw7dmxzc7PyXyhSAyHTEyZMWLVqFVeYFKitrZVl+cSJE3379j18+DBbQBWiKFqtVj41McgXdLvdR48eHTZs2Lhx47gCXq930KBBzz//PJcuiqLFYuESkyPs/ktbHo/niiuuuOuuu1paWsi7KrkCXMqvf/3rPn36HDt2bMGCBVlZWXFf6SgXhJIAN3vmUmXfkdrMgQMHyMdjx46RWq/Vau3Tp097e7ssy8ePHwcAr9fL/F/mYduiae1t5MiRJpOpc8FOwm1kSZImTpw4ffp0NlFZePHixXSh+fn5XK4qbDZb0qqY9LsAwE9/+lNuoV6vV6/XK9vGk3/fmsXvkoxw9uzZZcuWAUBRUdGbb75JEkVRZHcAvbsuSVJlZSUAjB8//uzZs5fmEiNQHL4oCXCzZy5V9t2OHTuuvfZaPlXRt0OVZaWc8lsAgM1mkzu+LwAUFhZyBdiPhCRJBoNBr9dz1yVcYTLPmpoaSZJIw3Xk23zxSeatVvIFydfnOl6FC8CyLJtMpsgXOgkVYv+hkEIe6yjRcLNnLlX23ZAhQ0I2ErLPOEiSBKmrx6hIucV27Nhx3XXXsSlcGeW/hAvAsqKw8jomQXfWk9blmH4d0sxOLl/Ix3ABmGyEBH3xaGTe88EIod7jm2++mTFjBp8KcN111wHAs88+GwgEbrnlFgDokS/qmTdv3smTJ0+fPs1nhBEMBsvKyo4fP+50Ort82pW84pDdbl999dWlbPXcd999TqfT4XDwGQmj0+msVuu8efOCwaDX683Ly2ttba2uribPARcXF9OSBw4cEEWxO8MYdxPGYIRQ+lqzZs3TTz/NpwIUFBQcPnz4N7/5jVarJfeMNRoNXyjz5eXlrVixYvLkybW1tfX19QUFBSNGjOALMaIPwAAwaNAgrVb74x//OBAIPPHEEwAwbNgwvpAacnJyzGbztm3b+Ay1sffUKyoq7Ha7RqMZPHgwV81lXyYxZ86cI0eO0I8pwK5ZbyNJktFo5LdI9xgMhuT0PugloHcfommINOvxx3330DZDpffeew86np8JZ/ny5Xq9nk/NNOGeD5Zlee/evbm5uVdeeeXGjRvJ6YUrDAB+v5/eM6ZoCzDXXYa2yp49e3bKlCkAMGTIkKNHj9Ilqo40DqewyTdt9eoTnNlsZo9LtYS864DiAxiD0wx3NldLhD47U6ZMGTFihM1ms9ls/fv35x50qaurAzy5J4Db7Va3OmE0GlPY9Slt9eoTnCRJJpOJPxl0D9aD1QUYg9NMkuvBsixLkrRmzZqBAwfm5ub++7//O/19kWvo3NzchFbgeiG32z169GiyazZt2sRnx8vpdEKP6DqnLny5GEprAr7/DqHkuvbaaz/77DP60e12q9Vlqbi4eOHChVVVVYFAYP/+/Z9++umyZcvUmnmGwhMcSmsYgxFKJp/Pl5eXx6ZYrdaKigo2JW4Oh2PRokWnT58uLCz8+9//Trpk2+32kpISvmivgf2iEUII/YtOp6MN0URRURH7sTtIrH3yySdpAAaAe++9t1OhXgZjMEIIoUtef/11Or18+XIVYzAAbNq0aefOnexDyd9++y2THz+fz5efn0+eAD558iSfDQAAL774IimwaNEidh1qamqYUkmFMRghhNAlRUVFZOgxr9f70ksv8dnds3jx4pycHDbloYceYj/GLS8vb+LEibIsz58/f/z48R999BFXYP/+/atXryZv32pubp4wYQLNqq6uZgomVTrG4L/+9a9XXnmlIAjXX399hLFvBg0a1NjYyKcqOBwOcuFDJHOsFoQQykRkwJNoBvqIlUajefjhh0ePHk1avCsrK+lLGLvJ7XYfOHAAAA4cOLB69erbbruNKzB37txvv/22pKQkJyfn+PHjn3/+uc/n48okX9rF4IsXL86ZM2fRokUtLS3ffvvtgw8+yJcAAIB169a1tbWFHMSOQ+5A0I7g7M3/QCBQXFzMRujuKy4uTof9ilBP4vP5AoEAn9rZhQsXIlyyU13OByXa2rVrA4EAeXvxM888o9YAZ2z/arljFHFWTk4OrYJrNJpgMMgdDLW1tbW1tWxKMtDglCYOHz6s1WrJI4BHjx4NuYb0oV4unX3yjJ1WliQsFgu7KdSCY3SoCMLsO5QqyX8++P777yfF/u3f/i3cgFnRj7zfacERxwbp5SDxP70ELYIMIkZfqRfS448/npubSz8CAHncPPnHQ9rVg7/88svs7GxyZURG5PF4PFyZxYsXK0dlAwCtVhtyGiGkFoPB0Nrayqd2z7x588LdJDpz5syOHTscDockSfn5+T/72c/4EgAXL168/vrroXNNKAL2DNibn4qJxrJly2jD3vvvv09a+xYtWpSE5oT4+kk5HI7S0lKz2Tx37lw+r0NNTc2uXbvYZ6ABoLq6OjVPSbGHYzogDQj0Y4Q1VGaF/Ed2YFXuGsfv96s+8J4oispXhqG4gWIvo9RKcj34lVde+eEPf0imm5qahgwZ0jlflmU5Ly+PvAmHS2d/73RaWQyFRDYUAJC3/+7duxcArFar3+8fOXKkXq/v/oCAkfdF5NyQyNk+ckuk2WzmXuzodrsBYPDgwSk5dcf8JRONfS2oLMsQfmwz5R7i/jHkdNxUmQmKFW72zKXKviPnfTJNWr+Up35y6lQuLuRJQFkMhUQ2FHQ00mq12rq6OpLV3t6u0WiiafmPjOzNcJEv1j0VLgC/9dZbdFoZgOWOip/RaEzJSMOxfckksNlshYWFZJrctA+3UZR7KORPjpuOmyozQbHCzZ65VNl33EwizFOZFfIkAIxw1/dI7thi5C8Jb2zQVW7tOADAzp072T3C4f8hPDIYtTIAk05Fzz//vCzLFotFGYAJAJAkSa/XWywWPi/BYviSyUFeBfraa69JkrRgwYIf/OAHJP3NN9+cM2cOW1K5hwCgvr5eluXDhw+zucqScVBlJihWuNkzlyr7bsiQIfS0SN5/Fy5wKhcX8iSgLIZCIhuKbi6Px8PlhgxmMSEzb25uHjhw4FNPPRUyN0qkqZxF4nF7e/vEiRPJynPjfwFzLJHCXq83+X2yYviSSfPzn/+cbKCsrKyzZ8+SRPKSSzId7l2Y69evZ9NJohzjvgxHlZmgWOFmz1yq7LsdO3ZMmDCBTg8ePLhz/iXKxYU8CSiLoZDIhgq5uY4dOwbhL4aiR2fe1NSkXJAypUdK0y/p9/vb2trYVuj29nbu9kPII8Dr9ba3t/v9fjY3ZMlY9ZIDIt3gZs9cquw70jBWW1vrdruHDx9+3333kfSlS5cOHDiQLalcXFZWVl1dnSRJjz32GMbgWJENFbJe6Ha7m5ub+dTYsftCec9RlfN2+sPDMVr4000J3OyZS619V19f379/fwC46aab6Jl60qRJ/fr1k2WZ3MYDBm0Ya2hoIP84bNiwcePGkURRFMkEUmL7JdHdR24GdyqnkgTNNrPgi+GiJeBL9FIBN3vmwn2XcXw+nyiKEyZMOHjwYJ8+fWRZpo/bVlVV8aW7DY8QSMOxKhFCCKWETqdzOp3Hjx8vKysDZryLRARgROBlSLTwki0lcLNnLtx3GYrUhsloaAkNwHiEANaDEUIIsXQ63SuvvAIAo0aNWrduHZ+tknCjk/Y2GIMRQghd4nA4br311scff/y7774rKyuL5m1UcUjByMxpCWMwQgihf6H3gJ977jl6bzhBYRgBxmCEEEIE1wmL66KFEgFjMEIIIQCAY8eOWSwWthMWCcM6nY4phdSE3dKihV34UgI3e+bCfYciwyMEsB6MEEIIpQrGYIQQQig1MAYjhNQ3e/ZsAAgEAnwGQioREq+4uJhfqtqwOT5aAt66SAXc7BlKEAS73Y7PgKIIuvnr7ua/d0kQBABI6CIAY3D0Er2/UUi42TMU7jjUpW4eJN389y4lJwZjWzRCCCGUGhiDEUIIodTAGIwQQgilBsZghBBCaST9X6mk4hpq+ASEEEIowUgYI/2eAMDv9+fk5JDp0tJSWiyyQCBA/ytB6Bpy1Oqrldh+ZT1JovvgoZBws2co3HGoSzSCckdLlAdPlMXiFqFftIqLxrboXsrn8x06dIhPDcVut3s8Hj4VIYS6J9FV2IyAMbh3cblcNTU1Q4cOzcvL+9GPftTY2MiX6Mzn8914442FhYWCIMyZM6exsRFHPkIIIbWoVqHu8VRsfEi+QCDw6quvrl+/vrW1laQYjcbdu3dLkqTRdNEnQBAEk8m0Z88e9n9XrVqVnCGQMnqz92a441D0enNbtGoz6vFU3OjJFAgENm3aVF1dTT6aTKbFixdPnTpVo9FE+Y1oMZ/P99prr7388stOpxMARFHcuHFjeXk5/w+qinIlUbrBHYeihzEYdU3FjZ4cwWDwxRdffOSRRwBAr9dXVlbed9997A2YKL+RspjD4di2bdvu3bsBQBTF3//+90VFRWwBFSmXjjIC7jgUvfhi8NChQ2njXIKIovjJJ5/wqVGvYTRUm1GPp+JGTwKXy3XLLbeQA9RisaxYsULZ5hzlNwpXzOPxrFu3jkRik8m0adMm5SK6L9zSUZrDHYeiFAwG+/Tpwz6blP4Hj4priH2y0kt+fr7QIe7XZtXU1Iii2NraajQa/X7/ww8/nIjoWFBQUF9fb7fb9Xr91q1bR4wY4XK5+ELRcblccX9ZhFDmeuGFF/r06QMAWq32wQcfDAaDfImeTrVg3uOpeOETgSAIbre7oKCAz4hOMBgsKytramrS6/W//e1vI9+sFcI8e64U+YsHg8G1a9du3boVAKxWa0VFBV+iK6tXrwaALVu28BnJ2uxIdbjjUJccDsfMmTNp3NVoNJs2bTKZTOl/8Ki4hqrNKHopfNhUp9PF/USaihs9HI/HU1hYGPdSfD4fqf4aDIb6+nqdTseX6Ky4uJj0roos3B0RTmNj47x58wDAbDZXVVXx2eGRlqhw75pNwmZHiYA7DnWptLSUG/Rx8ODB586dS/+DR801lJPLZDLxa5BERqORX6GoQeK3ldvtBgCbzSZJktVq9fv9fInwvF6vXq8HAJPJJEkSn50UbrebrIPZbObzwrPb7QBA1lkURS43CZsdJQLuONSl0aNHM6fnTux2O186nYB6h7dqM4qG2WzW6/Ver5fPSAqr1ZrmMfjw4cP0EOzbt29WVlaUYZgG4JiCXyLEsSYmk8lkMpFp5UZWpqCMgDsOdclms112Wac+SZWVlXyhtKTi4a3ajLpks9kAwOl08hnJkv4xuL29/ejRo/RjVlZWNBeDkiSJogixhL2EiikMS5IEzDWvciMrU1BGwB2HuiRJ0g033EAD8JgxY6KsdaSciod3kvpFOxyOefPm2e32xD1I2gNkZ2dPmjSJfvz+++9D3iLllJWVOZ1Og8EQ013YxNHpdE6nU6/XV1dXd/mGr2+//RYASktLSVdwAMAO0gj1EhqN5q9//Su5B2e32z/99NO4++tkrmTEYJ/PV1paarFYooko4dTW1l599dVsym9+85vc3FxBEHJzc81mMwAEAgGuU25FRYXP52NT0lkwGGTXNisrq8sYVltb29TUZDAYDh48yOcxgsGg6uM8R5ihTqfbt28fACxatCjy9s/Ly2MvCQEgmv5fCKEegzwG0p3okNnYM2AikJbJaJolI6A3StlEAKirq5Nl+Y033gCAN954gzRs0uZur9cLAPT2c3xt0ZIk2Ww20nfAarUmtLsTWWGylBkzZpDn1vlCDNKrOfItdr/fT27DA4DJZHK73XyJ2DmdTqPRSBYdYZtYLBYAMBgM4QooKQ9IZQrKCLjjUPQy7mhRcYVVm1FI5FalwWDgM2JhtVoBYOPGjRG+dl1dHck1mUw03lssFrafbXwxeP78+bTXgEajmT9/Pl9CVSdOnCDLGjlyZOQATG8D22w2Po8hiqIoina73el0kk7pEQJ2NEjgN5vNTqfTZrOJohhhqxoMBgCwWq18RhjKa7UIOx2lM9xxKHoZd7SouMKqzUhJkiSDwRBTNSgkm81GqrYRvnZJScljjz0myzIZtokkiqJosVhomThisN/vJxGRpUpVsvvIpUnkb0TiJRvLDQaDMs7FxGg00m7MsqKxgUNyuXWICYTf6Sid4Y5D0cu4o0XFFVZtRkrkuc9wZ+c4hPva5GYwOcvT5mhlbKDvDupV7rjjjktbSpZtNhu9RokPKDq3X3vttfxSVRVN53CUbiDMrxUhpYw7WlRc4QT2yZo6darBYKioqOhyCFCHw0G6xbJqamr4cqHU1NRUV1fb7XbSoU6j0ZhMptdff/21114TRZEdK2rMmDGRa41KtBrHUrEeHHftkFx2dFmjtdls7733HrvyH3744axZs9iUWImiyD7HHAwGP/300whhUpIkcjc6vi/r9/t7b2cNhFCPx5/zVEXOv7FGvnCUaxty0A/SHM01RMtxtUXLsjx//nz6wgONRjN27Fi+RNLRFvIuoxppFbBYLOR2AGmZiBAvo0Fq0qQqTDt88YU6I83mXV4xoJ4EFO0lCIWjPLenORVXWLUZhaNKv2iC+9ohA7DcEXhA0QweXwyWJGnXrl2jR48ePHjwrl27ugx7SRBTSCNXJABA/nLXJXGQJIn07SI9wkRR7PJUS6vC3ewZgDLIHXfcEX1fPNTLqRjSkkPFFVZtRhGQR7Dj/kGScz1Fujo///zzbCJ0jklz584dNmzYpVnIshxvDE5DZIMoLz4isNvtZBhqPiNefr+f9pWLBmk8j9yFG/UkRqMx7p886m1AvZCWHCqucALvB1MFBQV2u33JkiVdjjgR0ieffELWlTSikjEcVq5cyVVJ2VGidu3aFd+y0orP51OOg+FyucioWF2+FolVUlJSXl6u4luEc3JyysvLox/17J577gGAzZs38xkAgUCgsbERABobG5XfFyGEerBkxGAAKCkpsVqtpaWl3XlxIds3JycnJ8KoZnl5efn5+Xxq2qupqWF7peXl5f3lL3/hypD+UGvWrOHS01xBQYEoik1NTcooO2TIkNtvv10QhNtvv33QoEHKAgghRPTr1489SaaKVqvl1yxeSYrBAFBRUWE2m6dNmxZ58MLerKqqitTpSX9si8VC3sjLevnllwFgxowZXHr6W7hwIXRcQ7BOnTp18eJFWZYvXrxYVlZ23XXXcQUQQogg54qU+/vf/86vWbySF4MBoKqqatasWXl5efxFRVIsWbKEX6G0FAgERFFcs2bNihUrlFlOp1MUxQhtAGnrJz/5CQAcOnSISyejxRIjR478v//7v0t5CCHUo6l2gzBK9fX1GzZs4FOTJaZ7qKnyl7/8pbW1devWrVar9auvvmJv4v73f/83dFQoM864ceMAQNm6Tvl8vu3bt7/77rt8BkII9VR8HRulh/b2duX7g8lTSRrnCZwAACAASURBVOr2LuYPiM66fPY3JqRHd8ju2eQZtkx5gzeiyINqMVH3AEY9AEQdiaIvmSmSXQ9GUcrOzv7++++nTp3KJpI3RCXzjmlrayuf1A3jx493Op1ffvkl2/4MAD6fTxTFlStXpskrkFH0Fi9evHXrVrPZTLq+R7Z8+fLjx49PmTKFz0Cot0rq/WAEAPX19crBO30+X8iHqZqbm/kkgOHDh/NJGWL69Ol8EgbgDFdSUmK326urq7/66quCiHbt2nX8+HGn05kRt4QQSg6Mwcn26quvlpWVsWGYBKFjx44tXrx44sSJpN/43XffDQATJ06kxQBg9+7dABDyMd9gMNjY2FhcXFxcXNzY2KgM84nmcDgqKiqGDh1aW1sb7vmiwYMHA8CRI0doCgbgHoCE4dLS0ghjvNfU1NTV1WEARojHN06jBKOvdCQDXbFjeba1tdHO2wMHDjx69Cj3vxF2mSiKer3eYrFYrVa9Xq/X60PedlW6dCiEwf9DKEajEQDMZjN5o3DIMUTljvvZ7PBJ5MXPrCjH4ETphoxGHnL3hRtWFiECojvPyLGUzBQ97ftkBBKG9Xr9qVOnaACOBgAYDAY+teP0R4MuGZ85ynczdAqAofD/oEDeIcG+TircW4ptNht0Y9RSlOZChmEMwKhL0ZxniOhLZoqe9n0yhSRJpaWlnWJd9zzwwAPs/M1mc8horcTPSIH/BwWLxUIG8aaampr4uaSHvn37suuJVMeFYQzAKBoQxXmGiL5kpsD7walx/vz5lpaWUaNGxXSGgo5XVnDMZvN3333Hzv/cuXNJ6z49atQo7kXLZ8+eDbmeyrboZLLb7f/4xz/Y9USqo120ampq8B4wQl3jT1Qo8eg9YNooHWUYDrfLyJupaGsw+RjlS43YgyEk/h8UyMsiaWT1+/2iKIYMtKmNwXJPvIhOT6Q2HP2BjXq56H+Y0ZfMFFgPTja2J7BGozl48OCECRNEUYxmGG29Xs8nAQBAQUGByWQqLCycM2fOnDlzCgsLjUZj9C816iaNRmO1WpcsWVJcXFxRUaHVavPy8m677Ta+XIekrRhKlZKSErfb3dLSgjVghCLDGJxs3KM4NAyvXr26c8EQZs2aBQAho/WWLVv8fv+NN9544403er3e+vp6vkQiVVRU+P3+J554QqfTud3ut956K+SI1mSMkQEDBvAZqMcpKCgIeQwghFiCHEVrJFKRx+Mp6DxKFAAEg8Hz5893WWmoqamprq52u93KOcRNEAQ+qTMVj5Di4mKn0ylJkvIR5zNnziThdZOCgAc8QmlH+cMM+fZ0ACgsLCT32pSGDx+uPLGkv8xb40wXMnxqNJouAzAAXH311QBw5MiRkDNJc8Fg0Ol06vV65e/E4/EUFhZ6vd5oNgJCqGdzuVxkbPmQCgsL+SQAALDZbOXl5Xxq2uPPhiidkbEem5ubKyoq+Ly0d+rUKQBYvHgxl+71eslwYBiAEULA3K4ivThZS5YsCZkIAAMHDuTSMwLfAoDSnCAIer3+b3/7G58Rr6S1RdfW1j7yyCPctWogENBqtTNmzDh8+LBaC4pA2eSFEEo55Q+zoqJi9+7ddru9pKSETVeWdDgcpaWloih+8sknbHqm4L8PSnNz5sxpampSsdk2aTGY3AxWrnkgEMjJyVH+tBIhOUtBCMVE+cMk96eUkVVZkpxYlNE6U2C/6AyzZs0aAHjttdf4jMQI9zRUrHw+n9PpFEVReemAvWcRQpyCggKj0eh0OkO+UI5yOBzkxJKhARgwBmecGTNmAMDLL7/MZ8RLjkitRm/yboaNGzfyGQghFMqGDRsA4KGHHuIzGCR3+/btfEZ4pLt1yE7XED49cRIYg+fMmSPEqLGxkZ8L6iwnJyeay8O0EgwGSQwmFxAIIdSlLqvC8VWCtVqtIAharfaKK654++232Syfz6fVaj0eD5uYaAnsF93U1GSz2aIftXj58uVtbW18KlJYtWrV7t27t23bFtORpxaPx7Nr165z584tW7YsyhGv9uzZ09raajabU9vsTH5a5PYzn4cQSgC9Xn/27Fk+NZSQP8wNGzbs3r37oYceCtnfKo5KMCHLcjAYrK+vNxgMLS0to0ePBoALFy7MnDkTwjw+mkB846N6oPP77LpkNBpTOJJwZiEPz8W0eVVhNpsBwGg0kgmDwdDlW4rJixTDrS157yEr5EsPu8nr9d5www10EZs2beJLIIQSAKILMRFetEreTU4L0BmSMclDvhsmMnaVZs2aRd44Rwa9J2eJS0WTIoHLgzCn3XAwBkePvIg3yrcTqoW8HIm+CsLv90fzlmLyMJ/RaOQzkqiysvJf4bdDlC+0QJG9+eab5LRVXV1NE8vLy/1+P/1IL6rISRMA7rvvvlOnTtECqAeDboc0MioWjbV0hqQe0uX5R4ldJZvNdtVVV5FpEq26v8KxSuDyAGNwIkVo5I/j2jAayncSs28OjtyDmp6U4/jNdJOyqg0Ay5cv58uhGD355JMAYDabW1pajEYjfUUSAJhMJloMmJMaAHi93qVLlwIAeSIc9Wzs3o8bWxUmM4y7Eix3XqX29nZuDVVZ4ZgksE8WSqjf/e53ffv25VMBAMDpdPJJKlE+WUS1trbySR2qq6vpnZ7S0lK+J16CabXazquDVBAIBDZu3Lhz586qqqrRo0fX19ezx8bWrVvDdWzR6XSvvvrqsmXL7r77bj4PoVBIB+lFixYFg0GSEvedYM7+/ftHjRrFpyYZH5TVA0w92O/3d9n6h/VgtSRot5JGIVrdITd6bTYb+RjlQqMspq7ly5d3OujjasJCLLvdPmTIED5VluWOejBtMmH3OJ3++uuvgWkdQT0Vu/e7g1SFyY2t7lSC5c6rNG7cuDVr1jCZqq1w9BK4PGBiMH2nt9lsDheMMQarJXGHEfklmM3myspKvV6v1+tpn6woFxplMXV5vV7S9ZG4/fbb+RIoRuQXzafKsizLAEDa/9nGQ5rFTtPrOdRThTtIYkUqAOSGV9x3ggmySn6/f8WKFeRYVeYmU5LaoktKSiRJ2rdv37lz50RRHDp0aE1Njcvl4suh9FZfX+90Os+dO7d+/fp9+/Z98cUXypcgpSGdTtfS0kLCht/vb2ho4EugGF24cKF///5kuri4WBAEtkNATk6O1WplGw+VLrssSScf1AOQZ4XJDa84nglmZWdnk1tUhw4dam5uJrfJAoEAuXUFAGSipqaG/88E4YOyeiBMnyxJkux2u8lkAgCtVvvUU0+RdKwHqyWhu5VQLkKZElKUxRIktUvvSZT1YPqRTJBbFaTxUFkG26J7CRV/caQqTMRdCU5DKbgUPXXq1Ntvv71nzx4AGDt27M0338yXQAilt6lTp/br12/Xrl3ko3KEP41Gs2/fPvJSOSWTyXTVVVcpx2RACAB8Pl9Hl8pL2NcGh+zamaENq8mLwS6Xq6amZujQoaIonjt37re//a3f7//ggw9KS0v5oijt6fV67gcAHW04kUV+hAllCo1Gs3fv3nvvvXf06NGCIGi12kWLFnFlSkpKDAYD/UhGHBQEoaCggDQDXiqKUG+VpJt5jY2N8+bNM5lM+/btmzp1akbcREQRKN/lICjeKYZ6tnnz5nm93rfeemvAgAGDBw+m9+foWBwAUF9ff/DgQTJdUlJit9vHjBnzwQcfzJgxAyvBPYnP51O2hRAhn1LLycmJ8KCjTqcLdzLpeeeZBH4fQRDcbjcdezMYDEYOvRUVFbfeemtFRQWfgWKUksM0JQuNVUasJEKZxefz5eXl8aldUb5KPBrcT9jj8SR7eGe1Ja8tmgbg06dP05bMP/3pT51Loe4iPVHnzJnj8/n4vMQIBoOrV68GgAy9H4MQ6g5SA77UyygK9L+6adq0acnrwJwYSYrBxcXFZMLj8YwbN66iokKW5Y0bN86dO/fQoUOdy6Ju0Wg0EyZMaGpqysvLq6+vj/BwiCocDseIESO2bt2am5ub+hFnEEK9idPprKury+gwnKQY7HQ6yVXPyZMnAeCFF14AgF/+8pcWi+VHP/oRVxh1k8vlslgsALBkyZLJkyeHe/tmN3k8noqKitLS0tbWVpPJ5PP58A4fQiiZdDpdHGHYbDaTtwgPGDCA3q5m+5kOHz78iy++UKYLgkDaF10uF5tIl96vXz/2/jetfEbCtxGoB5jngxcuXDhy5Mj29nby7h1ahjzyRabx+WB1eb1eMqwVAIiiaLfbu3zPYJScTic3Z75EukroAY9Q78SexmVZttlsFosl8iBobHSIScifsNfrJYMw8hmhPPbYYwMHDmxoaGhvb7fZbOy7RsiE3++/8cYbhw0bxqVzQqaTUyL7kckMresScWO3Mnlg/5prrtmyZQsAnDhxQpbllpaWkSNH/uIXvyBlMAYngt1up8+HRB4rtEter5e8KInOLeP2VzQ/CYRQTLgY7HQ6yTlHFMVwwZiNDjEJ9xMmYdhkMtGahtfrDVk90Gg0DQ0NfGrnOZPBVpXprJDp5MQY0yj6XZeIG7eVJUm66667hgwZQs7gRFlZWXt7OymAMThx3G43GZiMIAer1Wp1u92RK8dut9tut5vNZhp6AcBgMIQ8uNMfRPGTQAjFhIvBhN/vt9ls4YIxqB2D5Y4wbDAYyDnNarUqX1tOVjXkSY+d886dOy+//HJlOitkOgBYrVZ9x0D6Ictwui4Rt1i3MsbgRCO/CtqMzDIYDMbO+BIABoMh3FVtpoAofhIIoZiEjMGU3+/ftm0b6bC5c+dOkggxRgcqwoLkzmE4ZAxua2vj5kCrE+y5DgA2b96sTKejq7Lvh2UrJAAgSRK55iAfaVY4kR7YRT1MTk5OeXl5eXn5rl27Tp065XK5mpubT5482dTU1NTUxJcGEEVx/Pjxt956a35+/sSJE7HLFUIoei6X6/XXX6+rqyPdNufPnz9jxgy+UPdwzweTLlqiKJaVld12222XynU4f/48na6pqamurgYAuSPQyrJcW1v79NNPHzlyhH3TGi1AFRUVhUwHAI1Gs3379tLS0vvuu4/PC6lzSFYTRLzSUd4/x3pwyrndbrfb3YNH0k/oAY9Q78TVg71er9lsJqPSmkymkL1BI0eHCLifcMiuWKQ2DADKerAkSQBw9OhRmkJnSCZILdZkMikLcEKm00Tamtg5P4SU1YOrq6urqqr4VJRSmT7iDEIo5erq6s6dO5ecYYlJrRcAqqqqAoHA8uXLSXpeXh550SFHo9FMmTLl7rvvPnLkyMCBA0+fPq0scODAgcLCwrlz55aXl3O50duwYQP7kokIkvR8MOqmRYsWscPKrFq1ig5KddNNN0Ue52TPnj233HILnxrK7NmzyeNujzzyCHmKjKIPwLGLZtMjCwaD7GN2UT02hxDKQFVVVVu2bCkpKUl0AIbOzwdnZWXd2uGJJ56wWq3kMRzOkSNHrrjiitzcXEEQxo0bd//993MFCgoKrFbrk08+SVPoiUtgng9m05WnwYKCArPZzCWGxleM1QMRWxuUi8a26AgAgNzklzuaU9iuBFOmTLlUVGHkyJHKrR0SKeZ2uydOnHjFFVecPXuWyyITtNcfmx5Z5F4bSZMO64BQD8P9uiVJmjVrFgDk5OTQ18PLssw9OBshOkQQ8icc0/PBhNfrbWtrY++7cffg6Mdw9+ZCpnOJ7Ck0nKTWg2tqauiFA3RcRCivIFBI69evJwNPklcvT506laR/9NFH7777LluS88EHH5AfSZQKCgqOHTs2ffp05dvoiLy8vA0bNvCpCCEEsHTp0s8//7ylpWXXrl1bt26lZ3i2L7G6Qo6W5fP5Ioxgr9PpBg4cyPYz5fqc0o/h+qKGTOcSo3qVBR+U1QMRr3SUi8Z6cATAjIlBuhvQLPbqcvTo0eQJ7CuvvNLj8YQsEwE72xMnTgDzIB3Ngo7fEnlISbkfQ7LZbGPGjLHb7X6/32q1KvtoJEeUa4sQih5XD2bP/GwNNVyZmET4CXO14ZDPJqWhpNaDUXds2rRp7dq1yiove3X5+eefP/HEE+3t7TNnzrzjjjtClonSddddBwDff/89nwFQVFRkNBrJu5Ki9F//9V+fffZZaWmpVqt96KGHRo0aleiXSSCEUoW+lDBkDTVBkrksFaUsBkd7vxp1WLx4MQDcf//9lZWVfB7jF7/4RXZ29h/+8IcPPviAz+t8O4AKechGjpFbtmzZvXs329QTCAT4+QqCIAikK9nPfvazU6dOkeu+1tbWv/3tb19++eWl2SVF0l7miFBvNmXKFPY18DQ0MkUSJRPDcMpiMD6YFCuNRvPLX/7y888/j+bR73A9Equqqjo3hMiyLIfcFx999BEobm9QOp3ObDbfddddNCUnJ4efryzLskzmkJ2dPXbsWFIyOzs7GAwm/zkoVd5XihCK7I033uDOPyQ0AgD7TqEEoWF47dq1fF5aCn2mRulp9erVCxYsCBcXVRQMBisrK+fNm8dnMNatWxf9tW0wGDx//jxpobp48aJGo+EGuEEI9Qx5eXkNDQ1cok6n8/v9CT13cc8Hx3EDLiUwBmeY/Px8PkltLpfr1ltvPX/+fEtLC5/H0Gg0mzZtWrJkSTAYDFftpr788svCwkKr1XrbbbeNGzdu6NChw4cP5wshhFC8yPPBZJpMkBEl01wXp85uOnnyZJR1nWAweOLECboFEcdms4X7GOt0BHfddZcgCADw/PPPr1y5kr1opXNgZ1VRUfHxxx93GYABoKCgoLm5mTxPtXDhwj/84Q/R/BdCqMfQarWyLPOp6tFoNOx96EwhJG6jOByO0tJSs9kc8nYjKxAILFiwwOv1HjlyJKGNFag383g8hYWFiTvgEeqdovxlCcKlcCMIgtvtjrKGxmJn0jMksE9WSUmJ3W4nXdQidLL1+XxXX301ABw9ehQDMEIIZTQ65C0HABwOB1+610tgDAaAkpIS0kWtrKwsZBh2uVyiKC5evPjgwYPYOIkQQplux44dI0eOFEWxvb2dfUQCAEpKSvjSvV4y6vU+n48009fX19NntyGWxmqEoudyuTZu3MinAvh8vqamJvJCMY5Opws5vDtCqEvKtuhgMDh+/PgFCxY899xzNFHAtuhQklH11Ol0Bw8eLCsrE0XR6XSSMFxbW/vII4/YbLbuvB8KqcXhcLCXqC6Xy+VyZWIHBwAYN26cz+c7fvz4n/70pwEDBvDZne3atau6uhpHjEFIRRqNxm63c0/k2+129iMikndNEQwGN2zYUF1dbbPZPvzww+rqarvdjk0TaYK7upwzZ86NN96Yue0TwWCwrKwMACLf48CWGIS6T1kP7hLWg6lkf5+amprq6mq9Xk8rxCgdsEd2IBDQarVOpzMjnq4Lp8swjAEYIVVEjsGBQEDZ2RZjMJXYPllK5HzX0tKCAThtHT58WK/XkwCcQcOucjQazcGDBwEgZH9ADMAIJYdWq+WTECPZMZhQXhah9LF58+aVK1eS6erq6s6ZmSRcGMYAjBBKE6mJwShtBQKBpqamn/zkJ3xGZlKGYQzACKH0gTEY/QvpxEgiliiK9LH6zG2OJtgw3NjYiAEYoSQoLi6m5xAyIQgCjtGhlIL72z3vpnqmu3DhQm5urtfrJTfp2Xcw9JidRbpoNTU1YQBGSF2R+2SFPIcI2CerQ4j+oqhXaWxsXLFixfXXX097yYXsRZzpSG24ubkZH4dDCKUPbIvu1URRXLJkybJly8K1EfWkwSs0Gg0GYIRQWklBvb7nNSYghFCvFbktGp8PjgzrwQghhBJFGYC7yePx8EmZDGMwQgghlBoYgxFCCKHUwBiMEEIIpQbGYNSjnD59+vbbbxcEYdCgQfS+kcPhyM/Pp2WKi4vpdJ8+fUjhRx99VDmsdJrweDxkiIMBAwb8/Oc/j289a2pqIgy3EgwG+/XrR5YiCMK8efO4F88l2kcffXT11VeTpRcVFal4zy/WV3AuWrSIboerrrqqsbGRL8F4//33+/XrV19fTz7GuiyEQE66lCwU9QanTp0CgLvuusvr9VqtVpvNRtKdTicAeL1e8pE9Asm0zWYbMWLElClTaHpacbvd7G+2oKBAkiS+UFfI//KpHSRJYhcBAKIo8oUShvuCAGAwGPhC8YLw3zokbk0A4PDhw3yhDqtWrQKAoUOHko8Q47J6Br/fDwBms5nPCMNqtQLze4wJALjdbj41k6XgiOmdhylKgpkzZ9555518qizLsgwARqORTrPpZKKtrQ0A3nzzTZqVVsh6tre3z5w5EwC2bdtG0v1+P5mQJIkNzCSd5spdxWCZ2RTt7e2XX345W5jMh52/8iJAuSbs0v1+P/uR09DQAAAbN24kH71eL52/crZkuq2tjc0lie3t7WSCJsrM9+IKK78CwW6o2tpaAMjNzSUfyb+w/+j1emfPnt3c3Ew+Rt7CPZjX69Xr9QaDIdxWpciQA3a7nc+IDmAM7r5ee5iiRAMAp9PJp8qy3HFiJbnsEchOr1y58oEHHqAf0wpdT9JIO2/ePPKR1lZFUaR1x4cffph8XwB47LHHSCL5SKZD4jYL/fj444/TuT333HOyLNvtdr1ez9Zj7HY7ALjdbq/X279/f1qeXtPQewFWq5X+F0Vi8KpVq5Rn8JBfcODAgXQR9AuOGTOGJhYWFpIgLTPfy2g0krn5/X69Xh+u3kbmQKZPnDhBP7KV9fz8fBrR2QYD+o+9kNfrJfso3MWWJElGo1Gv10cTRL1erzsUALDZbHyq2+2OYp7pKQVHTG8+TFFCAQB7EudqgWazmZwu2SOQnSZN1vRjWmFX7LLLLtNoNFw6iQ1k+uGHHyYDjgqCAABkO7AFlCRFW3ROTo7cEVzJ3Mhfu91us9kAwGKxnD179t577yXnVgBwOp2FhYXsTAYMGCB3tFUSIWOw3+8nNW8AmDt3LnshBaG+IJ0bWaW6ujo2sW/fvgBQWlrKzYGuJFn/yDGYuOyyywDg+eefl2XZbrdfddVVNGvatGm0PPu/dLoXkiTJYDBw12ddZikpj8ZohIv9aS4FRwz07sMUJQ503GSiQ2yyWZIk6fV6ci+KTafTFotlyJAh9GNa4daZfmQn6LTFYsnOziYpEFcMzsnJ+Z//+R+547qEtLU2NzcDgNPp9Hq9AGAwGGbMmAHMS6bljqXcfPPNZIIkkhhcX1/feZmdeDyeWbNm0f+i9/LJHMiEcpqtp4YsQKbJBLmeMJvNBoMBwt+PJP9LrVy5kqSfPXv2mmuuYbNoefZ/6XTvJEmSyWTS6/XshVT0LdUU3Vl8hgIpGXfjdsql4IjBwxQlSGFh4Y4dO+hH5cnRarXq9XplOjF9+nT239MKXc+vv/4aAK6//nounUYFt6J/E1cgnJC5JDbTj9DR0iCKIp3/kCFDAMBkMpEChF6vnz9/Pm2LhlAzD+mFF14AAJ1ORz7SfySzjTAdMpFMkwn2OiNCjzNSgG5GGqrpS00oWp79Xzrdm7E3fd1ut16vNxqN0QdgIpownOkBWJYxBqMe5Jlnnhk5cqTH45Flub29PeTJkQQPZfqhQ4cAgN5ETDd0PUmDanV1tdxRvySVVAAgZcgN44aGBrlzBCUFIrTX0ZIsco7bt2+fLMvk0SZyvqMtDZMnTyYTpOZKps+ePSt37rsUcuYsumLffPMNAPTt25ckAsCJEydkRVgl0wcOHACAQYMGsYl///vfuTnQPlMmk4kUs1gsJEWJzsdisQDTQ5umK6fJBGkeaGlpIR97OdLgTw7XyHE0gshhuAcEYFnGGIx6EEmSJkyYQM6P0HFqJuhRp3xOCQBIy+2hQ4do+bRC62Tk9mf//v1JxCInfZbc8QXJnWCCFCYNsGRs/ZDIv3OUtWrS+YUsBQCamprIBLsUStmkHBI5mZKbr2TNH3/8cTnU0kl5LvHo0aNsIjsHuonIHqerHflaBDoWRL4O+RZsXzO2DJ0g36J///7hWrl7G7JBQvYAiF64MNwzArCMMRj1PE6n88SJE1wHafa3unfvXi7d6XRGOCmnHBuDb7nlFvYU///+3/8jgTkrK2vp0qU0kXZxysvLI4mSJM2YMWPWrFnhvmm4R3L37NlD+iFnZ2fv2bOHJEqSlJ+ff++998qyXFxcXF5eTtOnTp1KFj1s2DC6rHAzJ/x+/0033US+yOWXX37PPffQOjT9gtnZ2bTXOpk/AGi1WlqjpYkajeaOO+6gc6iurtbpdHRHQ8QLEVmWjUYjaVeXZdnr9RqNRhKDT506lZubSxaRnZ1N7xOzX626unrs2LHcsYe6SRmGe0wAlmU5Be+BEnrcy6cQQslEarrcaSRkIisYDE6ZMuXjjz+22+34JunM4nA4SktLzWZzVVUVme4xO1HDJyCEUE+0du3ajz/+eMSIEbSmjjJFSUmJ3W4vLS09ffr07t27e0wABozBCKGMQ5oio0lkLVu27JprrlmxYgVp3EaZhYbhnhSAASAFzcLYFo0QQggBvjcJIYQQShWMwQghhFBqYAxGCCGEUgNjMEIIIZQaGIMRQgilEZ/P53A4XC5XIBAgKcFgkAx+STgcDm7a4XD4fD6amEFS0EVZEAS/35+Tk8NnIIQQ6t0effTRzZs3k+kJEya4XC4A8Hg8hYWFXq+XvDmDfbiGHZZ1+fLlL730Ev2YEVJQD77qqqu0Wi2fihBCqHd7++23N2/efPjwYTKOIwnAAFBQUAAAq1evZgtTpPDXX3+9Z88etrqcEVJQDwZ8RBghhJDCo48++uWXX+7Zs4fP6KjvOp3OoqIirh5Mp5977rnDhw83NjbS/0p/qYmFGIMRQghx+vXr19DQUF5ezmcACIJgNpsbGho++eSTcDHY5XJNmjSJfVF0+ktBWzRCCCGkdPHixSlTpgCAw+EQBEEQBNotCwDWrl3r9Xrr6+sv/UNno0aNCgaDfGp6wxiMEEIoLdx88827d+8GgJKSElK7ZXvv5uTkbNq0ae3atTSFs3///smTDxTPngAAAUVJREFUJ/Op6Q1jMEIIobSwaNGip59+OkJddvHixXl5eXxqh8rKytmzZ/Op6Q1jMEIIobSwbNmy77///sYbb/z4449ra2svu+wyj8fDFtBoNNu3bwcA7mlgl8s1c+bM8+fPV1dXs+npD2MwQgihtKDRaL744otp06b94Ac/eOmll1555RXyVBIAGAwGMlFSUjJq1Ch6n1ir1QqCIIripEmTPv/884wbeSI1/ZOxXzRCCCGUqHqwx+M5dOhQIBAIBoMOh+PixYsOhyNCKz9CCCHU22j4BDXs379/4cKFZHrQoEH/+7//+89//jM7O7uwsPDkyZOdyyKEEEK9VELqwRUVFdu2bZNlee7cuW1tbRcvXpRl+fz585999hl3gx0hhBDqtRJyX1YQBEmSNBpNW1vboEGD2AFN2tvbs7Oz8X4wQggh9P8BP6OFJEBMymQAAAAASUVORK5CYII=;" vertex="1" parent="1">
          <mxGeometry x="220" y="280" width="641" height="222" as="geometry" />
        </mxCell>
        <mxCell id="kXoVTFCeTZMKWEtxePff-2" value="" style="rounded=0;whiteSpace=wrap;html=1;strokeColor=none;" vertex="1" parent="1">
          <mxGeometry x="220" y="410" width="120" height="100" as="geometry" />
        </mxCell>
      </root>
    </mxGraphModel>
  </diagram>
</mxfile>
